# xmcd
#
# Track frame offsets:
#	150
#	21939
#	39817
#	66431
#	84826
#	104131
#	128533
#	145310
#	167301
#	179794
#	199241
#	217736
#	236946
#	250570
#
# Disc length: 3705 seconds
#
# Revision: 0
# Processed by: cddbd v1.5.2PL0 Copyright (c) Steve Scherf et al.
# Submitted via: EasyCDDAExtractor 9.1.1.2
#
DISCID=bf0e770e
DTITLE=Timbuktu - En High 5 and 1 Falafel
DYEAR=2008
DGENRE=Hip-Hop
TTITLE0=Tänk om
TTITLE1=N.A.P.
TTITLE2=Välj mej
TTITLE3=Säj inte nä säg jää
TTITLE4=Jag vill bara
TTITLE5=Mörkar
TTITLE6=En high 5 and en falafel
TTITLE7=Glömten i ögat
TTITLE8=Fubbick fubbick
TTITLE9=Dom hinner aldrig ikapp
TTITLE10=Schnyyygg
TTITLE11=Olympiska spelen 2012
TTITLE12=Tack för kaffet
TTITLE13=6an
EXTD=
EXTT0=
EXTT1=
EXTT2=
EXTT3=
EXTT4=
EXTT5=
EXTT6=
EXTT7=
EXTT8=
EXTT9=
EXTT10=
EXTT11=
EXTT12=
EXTT13=
PLAYORDER=
